<svg width="299" height="48" viewBox="0 0 299 48" fill="none" xmlns="http://www.w3.org/2000/svg">
<g clip-path="url(#clip0)">
<path d="M17.657 8.66499L23.285 31.043L30.443 8.66499H41.425L48.364 31.085L54.265 8.66499H65.193L56.505 38.588H41.207L35.798 20.255L30.17 38.546H15.144L6.401 8.66499H17.657Z" fill="white"/>
<path d="M69.565 8.66499H98.197V15.394H80.602V20.451H96.94V26.261H80.602V31.57H98.361V38.299H69.565V8.66499Z" fill="white"/>
<path d="M103.714 8.66499H114.806V31.309H130.378V38.27H103.714V8.66499Z" fill="white"/>
<path d="M134.093 8.66499H156.386C161.96 8.66499 165.748 10.02 167.751 12.73C169.244 14.715 169.991 18.026 169.991 22.665C169.991 27.806 169.281 31.453 167.86 33.604C165.784 36.761 161.721 38.34 155.675 38.34H134.092V8.66499H134.093ZM154.474 31.383C155.931 31.383 157.078 30.838 157.916 29.748C158.535 28.853 158.845 27.777 158.845 26.52V19.982C158.845 18.502 158.416 17.404 157.561 16.691C156.706 15.978 155.257 15.623 153.217 15.623H145.13V31.383H154.474Z" fill="white"/>
<path d="M175.073 8.70699H191.356L198.787 26.722L205.945 8.66499H222.719V38.257H212.065L212.611 16.649L203.431 38.216H194.251L184.744 16.816L185.673 38.174H175.072V8.70699H175.073Z" fill="white"/>
<path d="M229.276 8.66499H257.908V15.414H240.313V20.484H256.651V26.31H240.313V31.634H258.072V38.382H229.276V8.66499Z" fill="white"/>
<path d="M260.802 8.66499H292.329V15.895H282.112V38.382H271.02V15.896H260.802V8.66499Z" fill="white"/>
</g>
<defs>
<clipPath id="clip0">
<rect width="298.901" height="47.253" fill="white"/>
</clipPath>
</defs>
</svg>
